<svg xmlns="http://www.w3.org/2000/svg" xmlns:xlink="http://www.w3.org/1999/xlink" version="1.1" width="113px" height="98px" style="shape-rendering:geometricPrecision; text-rendering:geometricPrecision; image-rendering:optimizeQuality; fill-rule:evenodd; clip-rule:evenodd">
<g><path style="opacity:0.944" fill="#fff" d="M 30.5,9.5 C 39.8923,8.61003 46.7257,12.2767 51,20.5C 55.1095,35.8977 49.2761,44.8977 33.5,47.5C 17.2829,43.7322 12.1162,34.0655 18,18.5C 21.2526,14.059 25.4192,11.059 30.5,9.5 Z"/></g>
<g><path style="opacity:0.959" fill="#fff" d="M 75.5,9.5 C 86.3273,8.3235 93.8273,12.6568 98,22.5C 98.5,42.8306 98.6666,63.1639 98.5,83.5C 86.1667,83.5 73.8333,83.5 61.5,83.5C 61.3334,63.4972 61.5,43.4972 62,23.5C 64.6873,16.981 69.1873,12.3143 75.5,9.5 Z"/></g>
<g><path style="opacity:0.934" fill="#fff" d="M 30.5,54.5 C 48.2296,55.929 55.5629,65.5956 52.5,83.5C 40.1667,83.5 27.8333,83.5 15.5,83.5C 12.4411,69.2739 17.4411,59.6072 30.5,54.5 Z"/></g>
</svg>