<svg xmlns="http://www.w3.org/2000/svg" width="113" height="98" style="shape-rendering:geometricPrecision;text-rendering:geometricPrecision;image-rendering:optimizeQuality;fill-rule:evenodd;clip-rule:evenodd"><path fill="#fcadf1" d="M30.5 9.5c9.392-.89 16.226 2.777 20.5 11 4.11 15.398-1.724 24.398-17.5 27-16.217-3.768-21.384-13.434-15.5-29 3.253-4.441 7.42-7.441 12.5-9Z" style="opacity:.944"/><path fill="#fcadf1" d="M75.5 9.5c10.827-1.177 18.327 3.157 22.5 13 .5 20.33.667 40.664.5 61h-37c-.167-20.003 0-40.003.5-60 2.687-6.519 7.187-11.186 13.5-14Z" style="opacity:.959"/><path fill="#fcadf1" d="M30.5 54.5c17.73 1.429 25.063 11.096 22 29h-37c-3.059-14.226 1.941-23.893 15-29Z" style="opacity:.934"/></svg>