<!-- <?xml version="1.0"?>
<svg version="1.1" xmlns="http://www.w3.org/2000/svg" width="140px" height="60px" style=""><path fill="#fc5bfa" d="M8.896,47.056q0-3.456,2.048-6.848q-2.368-1.504-2.368-4.448q0-3.552,3.136-6.304q3.52-3.104,9.088-3.104q2.56,0,5.504,0.736q0.672,0.16,5.728,2.48t7.264,2.32q1.472,0,2.208-0.832q0.384-0.416,0.384-0.896t-0.416-0.864q-0.224-0.32-0.224-0.416t0.176-0.096t0.608,0.56t0.432,1.312t-1.008,1.44t-2.544,0.688q-2.4,0-7.456-2.32t-6.352-2.576t-2.96-0.256q-6.624,0-10.432,4.288q-0.448,0.48-1.056,1.936t-0.608,2.8q0,1.856,1.312,2.88q1.664-2.432,3.936-3.872t4.608-1.44q2.88,0,2.88,2.24q0,2.688-3.152,5.84t-5.84,3.152q-1.728,0-1.728-1.472q0-0.512,0.272-0.896t0.656-0.288l-0.064,0.736q0,0.48,1.472,0.48q2.176,0,4.592-2.24t2.928-4.384q0.128-0.48,0.128-0.864q0-1.44-1.84-1.44t-3.808,1.408t-3.696,3.712q0.128,0.064,0.992,0.256l1.92,0.064q1.408,0.064,1.408,0.32q0,0.448-1.344,0.448l-0.192,0q-1.952,0-3.2-0.48q-2.464,3.776-2.464,6.944q0,4.096,3.168,4.096q3.584,0,7.456-4.992l6.272-9.344q3.52-5.12,6.112-5.248l1.216,0.288q0.576,0.32,0.576,0.96t-0.32,0.64l-1.024-0.16q-2.208,0-5.664,4.768l-6.368,8.896q-4.096,4.768-7.84,4.768q-2.56,0-3.536-1.376t-0.976-4z M37.09344,49.36q-2.4,0-2.4-2.656q0-1.344,0.704-2.944t1.536-2.688q-0.16,0.032-0.416,0.032q-0.768,0-1.28-1.088l-2.368,3.072q-1.984,2.464-2.304,2.464q-0.16,0-0.16-0.128q0-0.32,0.544-0.928q2.784-3.232,3.936-5.472q0.736-2.784,1.856-2.784q0.736,0,0.736,0.64t-0.8,1.632l-0.768,1.024q0,0.672,0.992,0.672q0.576,0,1.28-0.416l0.832-0.512q0.064-0.032,0.32-0.032t0.544,0.32t0.192,0.576l-2.208,2.784q-2.048,2.624-2.048,4.144t1.408,1.52q1.472,0,3.616-1.568q1.28-0.928,2.336-2.08q0.992-1.152,1.088-1.152q0.224,0,0.224,0.24t-0.288,0.56l-1.024,1.152q-0.864,0.896-1.92,1.728q-2.528,1.888-4.16,1.888z M55.21088,39.632l0.448-0.096q0.352,0,0.672,0.288t0.32,0.448t-1.984,3.088t-1.984,4.08q0,0.096,0.032,0.192q0.16,0.736,0.704,0.736q1.664,0,6.08-5.504q0.096-0.128,0.224-0.128t0.128,0.24t-0.288,0.624q-4.096,5.472-6.24,5.472q-0.288,0-0.544-0.096q-1.408-0.544-1.408-2.112q0-0.544,0.128-1.088l-1.984,1.92q-1.888,1.664-2.736,1.664t-1.616-0.544q-0.864-0.64-0.864-1.696q0-2.336,3.264-5.584t5.984-3.248q1.056,0,1.408,0.736q0.096,0.256,0.16,0.432t0.096,0.176z M45.64288,47.504q0,1.152,0.8,1.152q1.856,0,5.056-4.064l3.392-4.672q-0.256-0.448-0.832-0.448q-1.952,0-5.184,3.024t-3.232,5.008z M65.74432,49.584q-2.528,0-4.288-4q-0.448,0.672-2.016,3.776q-1.152-0.448-1.152-1.216q0-1.376,4.128-7.552t5.664-7.264q0.128-0.096,0.512-0.096q0.992,0,0.992,0.512q0,0.256-2.224,2.88t-2.48,3.168q2.912-1.504,4.64-1.504q0.992,0,1.696,0.8q0.672,0.672,0.672,1.376l0,0.192q-0.256,1.824-2.56,3.008q-1.856,0.992-3.456,0.992t-2.24-0.416q-0.192-0.032-0.304,0.096t-0.048,0.32q0.896,3.968,2.976,3.968q1.088,0,2.8-1.216t3.568-3.424q0.224-0.224,0.4-0.224t0.176,0.176t-0.224,0.496q-1.728,2.112-3.264,3.328q-2.336,1.824-3.968,1.824z M70.35232,39.792q0-0.256-0.288-0.512t-0.608-0.256q-1.728,0-4.144,1.44t-2.96,3.264q0.288,0,1.536,0.096q1.44,0,3.776-1.184q2.688-1.344,2.688-2.848z M74.83776,49.616q-0.352,0-0.64-0.096q-2.048-0.576-2.048-2.304q0-2.24,2.816-5.184t5.056-2.944q0.736,0,1.2,0.4t0.464,0.976q0,1.792-2.704,3.424t-4.4,1.632q-0.256,0-0.448-0.064q-0.48,0.864-0.48,1.824q0,1.664,1.584,1.664t4.112-2.144q1.952-1.568,3.328-3.328q0.288-0.384,0.496-0.384t0.208,0.192t-0.256,0.544q-1.728,2.272-4.16,4.032t-4.128,1.76z M80.88576,40.4q0-0.384-0.816-0.384t-2.32,1.248q-2.016,1.664-3.136,3.488q0.192,0.064,0.416,0.064q1.216,0,3.248-1.296t2.544-2.832q0.064-0.16,0.064-0.288z M94.4272,47.792q-2.304,1.92-3.824,1.92t-2-2.208q-0.16-0.896-0.224-2.688q-3.904,4.16-5.856,7.52q-0.096,0.128-0.256,0.128q-0.384,0-0.384-0.352q0-0.096,0.064-0.16q2.976-4.704,6.432-8.256q0.128-4.384,0.16-4.928q-0.736,0.16-3.136,3.712q-1.184,1.792-2.08,2.752t-1.072,1.104t-0.352,0.144t-0.176-0.16t1.024-1.296t2.72-3.712t2.432-3.248t1.376-0.672t0.928,0.176t0.208,0.608t-0.128,0.752t-0.08,0.736q-0.192,1.504-0.224,2.464q1.568-1.504,7.072-6.176q0.064-0.064,0.224-0.064t0.416,0.272t0.256,0.544t-0.256,0.528q-1.024,0.832-3.568,2.672t-4.208,3.376q-0.032,0.672-0.032,1.824t0.288,2.112q0.384,1.248,1.408,1.248q1.824,0,5.632-4.384q0.32-0.32,0.48-0.32t0.16,0.208t-0.256,0.496q-1.984,2.336-3.168,3.328z M100.35264,49.616q-0.352,0-0.64-0.096q-2.048-0.576-2.048-2.304q0-2.24,2.816-5.184t5.056-2.944q0.736,0,1.2,0.4t0.464,1.088t-0.416,1.44t-1.248,0.752t-0.832-0.512q0-0.352,0.432-1.072t0.432-0.768t-0.096-0.048q-0.896,0.096-2.448,1.28t-2.128,1.984l-1.248,1.824q-0.32,0.512-0.464,1.216t-0.144,1.056t0.4,0.8t1.136,0.448q1.6,0,3.968-1.872t3.648-3.568q0.16-0.192,0.384-0.192t0.224,0.128t-0.16,0.32q-1.76,2.336-4.208,4.08t-4.08,1.744z M110.02208,49.616q-0.352,0-0.64-0.096q-2.048-0.576-2.048-2.304q0-2.24,2.816-5.184t5.056-2.944q0.736,0,1.2,0.4t0.464,0.976q0,1.792-2.704,3.424t-4.4,1.632q-0.256,0-0.448-0.064q-0.48,0.864-0.48,1.824q0,1.664,1.584,1.664t4.112-2.144q1.952-1.568,3.328-3.328q0.288-0.384,0.496-0.384t0.208,0.192t-0.256,0.544q-1.728,2.272-4.16,4.032t-4.128,1.76z M116.07008,40.4q0-0.384-0.816-0.384t-2.32,1.248q-2.016,1.664-3.136,3.488q0.192,0.064,0.416,0.064q1.216,0,3.248-1.296t2.544-2.832q0.064-0.16,0.064-0.288z M120.33152,48.56q1.056,0,2.72-1.12t3.232-3.04q0.384-0.512,0.608-0.512t0.224,0.192t-1.312,1.664q-3.2,3.52-5.344,3.52q-1.056,0-1.792-0.496t-0.736-1.536t0.544-2.416q0.928-2.176,2.976-5.472q3.744-6.08,5.312-6.08q0.32,0,0.656,0.24t0.368,0.528q-0.736,0.992-2.832,3.808t-2.896,4.048t-1.2,1.84t-0.592,0.944t-0.448,0.88q-0.544,1.088-0.544,2.048t1.056,0.96z"/><path fill="#" d=""/></svg> -->

<svg xmlns="http://www.w3.org/2000/svg" xmlns:xlink="http://www.w3.org/1999/xlink" version="1.1" width="113px" height="98px" style="shape-rendering:geometricPrecision; text-rendering:geometricPrecision; image-rendering:optimizeQuality; fill-rule:evenodd; clip-rule:evenodd">
<g><path style="opacity:0.944" fill="#fcadf1" d="M 30.5,9.5 C 39.8923,8.61003 46.7257,12.2767 51,20.5C 55.1095,35.8977 49.2761,44.8977 33.5,47.5C 17.2829,43.7322 12.1162,34.0655 18,18.5C 21.2526,14.059 25.4192,11.059 30.5,9.5 Z"/></g>
<g><path style="opacity:0.959" fill="#fcadf1" d="M 75.5,9.5 C 86.3273,8.3235 93.8273,12.6568 98,22.5C 98.5,42.8306 98.6666,63.1639 98.5,83.5C 86.1667,83.5 73.8333,83.5 61.5,83.5C 61.3334,63.4972 61.5,43.4972 62,23.5C 64.6873,16.981 69.1873,12.3143 75.5,9.5 Z"/></g>
<g><path style="opacity:0.934" fill="#fcadf1" d="M 30.5,54.5 C 48.2296,55.929 55.5629,65.5956 52.5,83.5C 40.1667,83.5 27.8333,83.5 15.5,83.5C 12.4411,69.2739 17.4411,59.6072 30.5,54.5 Z"/></g>
</svg>