<svg width="103" height="436" viewBox="0 0 103 436" fill="none" xmlns="http://www.w3.org/2000/svg">
<g filter="url(#filter0_d_4_193)">
<path d="M33.7346 182.731C27.9609 180.502 21.3784 179.563 15.6885 182.056C14.9354 182.379 14.1544 182.819 13.8197 183.611C13.2618 184.901 14.1265 186.339 15.0191 187.395C26.6779 201.62 45.5887 207.574 63.4117 206.489C67.5397 206.225 72.5324 205.404 75.6284 202.529C75.0984 199.831 72.8113 198.306 70.4126 197.162C63.4675 193.818 39.5082 184.989 33.7346 182.731Z" fill="#E8A6FF"/>
<path d="M59.1999 207.721C40.9865 207.721 24.3907 200.564 14.2101 188.127C12.6761 186.25 12.2297 184.578 12.8713 183.141C13.3733 181.997 14.4332 181.41 15.2979 181.059C21.9362 178.155 29.1881 179.827 34.0971 181.733C35.3523 182.232 37.4999 183.024 40.1496 184.021C49.5771 187.599 65.3919 193.554 70.8588 196.164C73.2017 197.279 75.9909 199.009 76.6603 202.324C76.744 202.705 76.6045 203.116 76.3256 203.38C73.648 205.873 69.4642 207.251 63.4674 207.603C62.017 207.691 60.5945 207.721 59.1999 207.721ZM23.1356 181.674C20.7927 181.674 18.3661 182.056 16.0789 183.082C15.5769 183.317 14.9353 183.61 14.7401 184.08C14.4054 184.813 15.1305 185.898 15.7721 186.69C26.3152 199.566 44.1103 206.577 63.3279 205.403C68.4321 205.081 72.086 204.025 74.429 202.148C73.899 200.593 72.5044 199.391 69.9662 198.159C64.5831 195.577 48.8241 189.623 39.4245 186.074C36.7748 185.077 34.6271 184.256 33.3719 183.786C30.5548 182.672 26.9289 181.674 23.1356 181.674Z" fill="black"/>
<path d="M21.0996 196.751C20.5417 181.91 24.0282 166.892 21.1833 152.344C19.7329 144.894 16.6647 137.913 14.796 130.551C12.8993 123.218 12.2857 115.035 15.5769 108.288C19.7607 99.665 29.2161 95.412 38.2532 93.6521C47.2344 91.8922 57.0245 92.1269 64.8342 97.1132C71.1378 101.161 75.5447 108.142 77.2741 115.709C79.0034 123.277 78.1666 131.343 75.5448 138.617C74.457 141.638 73.0345 144.542 71.9188 147.563C65.1411 165.777 69.0738 186.251 67.3724 205.727C67.2609 207.105 67.0935 208.542 66.4799 209.774C65.7826 211.182 64.6111 212.238 63.4396 213.235C59.3395 216.814 54.9047 220.509 49.6052 221.096C45.282 221.565 40.9587 219.806 37.2491 217.43C30.1366 212.825 21.4622 206.401 21.0996 196.751Z" fill="#E8A6FF"/>
<path d="M29.2999 144.043L11.1421 19.0331C10.3333 13.3722 13.7919 8.23921 18.8683 7.53526L65.8105 1.14106C70.8868 0.437113 75.6842 4.45549 76.521 10.1164L94.6787 135.126C95.4876 140.787 92.0289 145.92 86.9526 146.624L40.0104 153.018C34.9061 153.722 30.1366 149.703 29.2999 144.043Z" fill="white"/>
<path d="M38.8667 154.191C33.7066 154.191 29.1045 149.968 28.2677 144.219L10.11 19.2093C9.66373 16.0709 10.361 12.9911 12.1182 10.5566C13.736 8.29815 16.1068 6.83159 18.7286 6.47961L65.6709 0.0854156C71.3051 -0.677195 76.6324 3.75181 77.5529 9.97002L95.7106 134.98C96.1569 138.118 95.4596 141.198 93.7024 143.632C92.0846 145.891 89.7138 147.357 87.092 147.709L40.1497 154.103C39.7034 154.162 39.285 154.191 38.8667 154.191ZM30.3317 143.867C31.0569 148.912 35.3244 152.52 39.8708 151.904L86.813 145.509C88.9049 145.216 90.7458 144.072 92.0288 142.283C93.4513 140.318 94.0092 137.825 93.6466 135.273L75.4889 10.2633C74.7637 5.21837 70.4962 1.61064 65.9498 2.22659L19.0076 8.62079C16.9157 8.9141 15.0748 10.058 13.7918 11.8472C12.3693 13.8124 11.8114 16.3056 12.174 18.8574L30.3317 143.867Z" fill="black"/>
<path d="M27.8494 133.982L11.9231 24.2545L77.302 15.3672L93.2283 125.066L27.8494 133.982Z" fill="#E8A6FF"/>
<path d="M27.8493 135.068C27.3472 135.068 26.901 134.687 26.8173 134.129L10.891 24.4307C10.8352 24.1374 10.9189 23.8441 11.0863 23.6094C11.2536 23.3748 11.5046 23.2281 11.7836 23.1694L77.1624 14.2528C77.7203 14.1941 78.2502 14.5754 78.3339 15.1914L94.2603 124.89C94.316 125.183 94.2323 125.477 94.065 125.711C93.8976 125.946 93.6466 126.093 93.3677 126.151L27.9888 135.068C27.933 135.068 27.8772 135.068 27.8493 135.068ZM13.1223 25.2226L28.7419 132.751L92.0288 124.127L76.4093 16.5992L13.1223 25.2226Z" fill="black"/>
<path d="M56.4387 139.203C55.9087 139.203 55.4625 138.793 55.4067 138.236C55.323 137.62 55.7414 137.092 56.2992 137.004L68.0697 135.39C68.6275 135.302 69.1575 135.742 69.2412 136.329C69.3249 136.945 68.9064 137.473 68.3486 137.561L56.5782 139.174C56.5503 139.203 56.4944 139.203 56.4387 139.203Z" fill="black"/>
<g opacity="0.1294">
<path d="M72.9506 16.1589C70.7193 16.3935 68.46 16.5695 66.2287 16.8922C60.204 17.6255 54.2072 18.4467 48.2104 19.3853C43.4967 20.0599 38.8108 20.9692 34.0134 21.2039C28.184 21.7612 22.3267 22.1131 16.5809 23.1984C15.7999 23.3157 14.9911 23.433 14.1543 23.4917C13.6523 23.521 13.1223 23.4917 12.7318 23.873C10.6678 25.2516 12.0066 29.5339 14.3774 29.1819C17.2503 29.0646 20.0395 28.39 22.8844 28.0967C26.2594 27.6274 29.6623 27.5101 33.0651 27.1581C45.6723 25.5449 58.2794 23.9023 70.8308 21.8785C72.5043 21.6732 74.1779 21.4092 75.8514 21.1452C77.2739 21.1452 78.5569 20.1186 78.278 18.1241C77.5807 14.7217 74.8194 16.0122 72.9506 16.1589Z" fill="black"/>
</g>
<g opacity="0.1294">
<path d="M80.3979 93.2419C80.9279 93.0366 81.151 92.9486 80.3979 93.2419V93.2419Z" fill="black"/>
</g>
<g opacity="0.1294">
<path d="M57.6657 96.117C57.4983 96.029 57.3032 95.9117 57.2195 95.8823C57.3589 95.941 57.5262 96.029 57.6657 96.117Z" fill="black"/>
</g>
<g opacity="0.1294">
<path d="M57.9446 96.2629C57.8609 96.2042 57.7493 96.1749 57.6656 96.1162C57.8609 96.2335 58.0283 96.3215 57.9446 96.2629Z" fill="black"/>
</g>
<path d="M92.8377 112.835C94.4833 111.133 94.0649 113.157 95.2922 111.045C96.5194 108.934 97.2725 106.411 96.9936 103.889C96.6867 101.366 95.1806 98.873 92.9771 97.9931C90.2995 96.9371 87.4545 98.433 85.0558 99.9583C80.9557 102.569 76.9392 105.443 73.5364 109.08C72.2812 110.429 71.0261 112.424 71.835 114.213C72.2534 115.152 73.1738 115.738 74.0663 116.12C76.6603 117.176 79.6448 116.912 81.9598 115.386C82.9639 114.712 83.8564 113.832 84.8884 113.245C85.9204 112.659 87.5103 111.984 88.2076 110.957C90.2158 107.995 90.7737 105.707 92.8377 112.835Z" fill="#E8A6FF"/>
<path d="M88.7377 100.897C90.3833 99.1962 92.0289 97.4363 93.2562 95.3538C94.4834 93.242 95.2365 90.7195 94.9576 88.197C94.6508 85.6745 93.1446 83.1814 90.9412 82.3014C88.2635 81.2455 85.4186 82.7414 83.0199 84.2666C78.9197 86.8771 74.9033 89.7515 71.5004 93.3886C70.2453 94.7378 68.9901 96.7324 69.799 98.5216C70.2174 99.4602 71.1378 100.047 72.0304 100.428C74.6243 101.484 76.7999 103.215 79.1149 101.719C80.1469 101.015 89.6581 96.2631 88.7377 100.897Z" fill="#E8A6FF"/>
<path d="M85.6414 87.3754C87.287 85.6742 88.9327 83.9143 90.16 81.8318C91.3872 79.72 92.1403 77.1975 91.8614 74.675C91.5545 72.1525 90.0484 69.6594 87.8449 68.7794C85.1673 67.7235 82.3223 69.2194 79.9236 70.7446C75.8235 73.3551 71.807 76.2296 68.4042 79.8666C67.149 81.2159 65.8939 83.2104 66.7028 84.9996C67.1212 85.9382 67.428 88.93 68.3205 89.2819C70.9145 90.3379 74.5126 87.6687 76.8276 86.1728C77.8317 85.4982 86.534 82.7411 85.6414 87.3754Z" fill="#E8A6FF"/>
<path d="M87.8449 68.7798C90.0484 69.5717 90.1879 60.0098 89.881 57.458C89.5742 54.9355 88.0681 52.4423 85.8646 51.5624C83.187 50.5065 80.342 52.0024 77.9433 53.5276C73.8431 56.1381 69.8267 59.0125 66.4238 62.6496C65.1687 63.9988 63.9135 65.9933 64.7224 67.7825C65.1408 68.7211 60.957 77.6378 61.8495 77.9898C64.4435 79.0457 67.9858 79.0164 70.3008 77.4912C71.3049 76.8459 81.9597 66.6973 87.8449 68.7798Z" fill="#E8A6FF"/>
<path d="M75.266 118.672C74.2898 118.672 73.3974 118.466 72.5606 117.968C70.4129 116.706 69.9387 115.034 69.9108 113.861C69.7435 108.376 78.9478 101.659 81.7649 99.7529C84.9446 97.5824 88.71 95.3239 92.7544 96.2038C96.1293 96.9371 98.5559 100.428 98.5838 104.534C98.5838 108.552 95.9061 111.749 93.7585 114.301L93.619 114.477C93.2285 114.917 92.587 114.976 92.1408 114.565C91.7224 114.155 91.6666 113.48 92.0571 113.011L92.1965 112.835C94.2326 110.429 96.5198 107.731 96.5198 104.534C96.5198 101.513 94.7347 98.8436 92.3639 98.345C89.0726 97.6411 85.8929 99.5476 82.9363 101.601C77.609 105.238 71.947 110.605 72.0306 113.803C72.0585 114.712 72.5884 115.445 73.6204 116.061C77.358 118.29 84.6936 111.661 88.2359 108.464C88.6264 108.112 88.9611 107.79 89.2679 107.526C89.7142 107.144 90.3836 107.203 90.7462 107.672C91.1088 108.142 91.0529 108.846 90.6066 109.227C90.2998 109.491 89.9651 109.814 89.5747 110.136C86.0603 113.275 80.0635 118.672 75.266 118.672Z" fill="black"/>
<path d="M66.3683 95.7932C66.1731 95.7932 65.9778 95.7932 65.7825 95.7639C64.4158 95.6172 63.3839 94.9719 62.8818 93.916C61.9335 92.0095 62.5192 85.4393 67.0098 79.7197C71.4446 74.0295 78.8918 67.7819 84.8049 67.5473C89.0724 67.4006 91.248 69.2485 92.3079 70.8617C94.2882 73.8241 94.2882 78.5758 92.3358 83.5914C92.1127 84.1487 91.499 84.4127 90.969 84.178C90.4391 83.9434 90.1881 83.2981 90.4112 82.7408C92.0569 78.4878 92.1405 74.4108 90.6064 72.0936C89.4907 70.4217 87.5662 69.6298 84.8886 69.7178C79.868 69.9231 72.9229 75.584 68.6554 81.0689C64.5832 86.3192 64.3043 91.8921 64.7785 92.8601C64.9737 93.2414 65.392 93.4467 66.0336 93.5347C67.6234 93.6813 69.9385 92.7721 70.8032 91.6282C71.1658 91.1589 71.8073 91.0709 72.2814 91.4522C72.7277 91.8335 72.8114 92.5081 72.4488 93.0067C71.2215 94.6199 68.5718 95.7932 66.3683 95.7932Z" fill="black"/>
<path d="M71.3048 110.958C69.4361 110.958 66.87 110.195 65.838 108.083C65.1128 106.617 65.0012 104.798 65.4475 102.54C66.2006 98.844 68.0136 95.1776 71.0259 91.3059C75.0145 86.1729 80.0072 82.7118 85.4182 81.3626C87.8448 80.7466 92.447 81.4212 95.1525 84.765C96.8818 86.9062 98.3601 90.8659 95.6267 97.6414C95.4036 98.1987 94.79 98.4627 94.26 98.228C93.7301 97.9934 93.479 97.3481 93.7021 96.7908C95.5151 92.2444 95.4872 88.5781 93.5348 86.2022C91.5266 83.7091 87.7891 83.0345 85.8924 83.5331C80.9276 84.7943 76.3254 87.9621 72.6437 92.7431C69.8545 96.3508 68.1531 99.6946 67.4837 103.038C67.1211 104.769 67.2048 106.118 67.6789 107.086C68.5157 108.817 71.5558 108.934 72.1416 108.67C72.6715 108.465 73.2852 108.699 73.5083 109.257C73.7315 109.814 73.5362 110.43 73.0062 110.664C72.6436 110.84 72.03 110.958 71.3048 110.958Z" fill="black"/>
<path d="M64.4439 83.2104C62.603 83.2104 61.2921 82.0958 60.79 81.5678C57.7498 78.5174 59.3117 73.2671 61.5988 69.6593L62.3798 68.4274C65.2527 63.8518 68.2372 59.1295 72.1978 55.5217C75.4891 52.5006 83.8846 47.661 88.8494 51.914C93.3679 55.7564 91.2759 62.0919 89.9092 66.3156C89.5466 67.4008 89.2119 68.4568 89.0725 69.2194C88.9609 69.806 88.4031 70.1873 87.8452 70.07C87.2874 69.9527 86.9248 69.366 87.0363 68.7794C87.2037 67.8701 87.5663 66.8142 87.9568 65.6116C89.2677 61.5639 90.9133 56.519 87.5663 53.6445C83.9961 50.6234 77.1347 53.9672 73.5924 57.1936C69.8549 60.6253 66.9541 65.2303 64.137 69.6593L63.356 70.8913C61.8778 73.2084 60.009 77.7254 62.2404 79.9839C62.5751 80.3066 63.4676 81.0692 64.6112 81.0105C65.5595 80.9518 66.5357 80.3359 67.4562 79.1626C67.8188 78.6933 68.4882 78.6347 68.9344 79.016C69.3807 79.3973 69.4366 80.1012 69.074 80.5705C67.763 82.2131 66.2847 83.1224 64.7227 83.2104C64.6112 83.2104 64.5275 83.2104 64.4439 83.2104Z" fill="black"/>
<path d="M25.2272 84.0018C28.6301 78.3408 38.6712 67.6056 33.5112 64.3499C30.8893 62.7073 24.4741 65.8458 22.3822 68.1629C18.7841 72.0933 11.588 75.6717 8.96615 80.394C7.98992 82.1539 4.19658 92.2732 5.45172 93.8277C6.12113 94.649 6.09332 103.302 6.31645 104.358C17.1386 160.615 23.749 117.733 23.749 114.653C23.749 106.059 20.0114 92.7131 25.2272 84.0018Z" fill="#E8A6FF"/>
<path d="M21.0714 213.294C20.5136 213.294 20.0394 212.824 20.0394 212.208C19.6768 197.191 20.2347 182.789 20.8483 167.566L20.9041 166.217C21.4898 151.434 16.9434 140.23 12.5923 129.348C10.2773 123.599 8.1016 118.173 6.84646 112.57L6.48394 110.957C4.47571 102.128 2.41164 93.0065 5.81447 84.7644C8.04583 79.3675 12.3691 75.3198 16.5808 71.6241L17.1665 71.0961C19.7326 68.8669 23.2191 65.8165 26.1199 64.2913C29.8016 62.3554 32.5351 61.9448 34.2086 63.0594C34.9338 63.5287 35.7705 64.5259 35.7426 66.5791C35.5753 73.9706 33.6786 76.1997 30.1921 80.2474C29.4391 81.1274 28.5465 82.154 27.5981 83.3272C22.4381 89.7214 23.7491 100.486 25.5621 110.957C25.6736 111.544 25.2831 112.13 24.7253 112.248C24.1674 112.365 23.6096 111.954 23.498 111.368C21.6013 100.369 20.2626 89.0468 26.0083 81.9193C26.9846 80.7167 27.8492 79.6901 28.6302 78.7809C32.0609 74.7918 33.4833 73.1493 33.6228 66.5498C33.6507 65.3472 33.2045 65.0539 33.065 64.9366C32.7024 64.7019 31.2241 64.086 27.0403 66.2858C24.3627 67.6937 20.9599 70.6561 18.4775 72.8266L17.8918 73.3546C13.6801 77.021 9.74731 80.7167 7.71119 85.6737C4.58729 93.2411 6.56761 102.011 8.49216 110.488L8.85469 112.101C10.0819 117.527 12.2297 122.866 14.4889 128.527C18.7564 139.086 23.5817 151.082 22.968 166.334L22.9123 167.684C22.3266 182.877 21.7687 197.22 22.1034 212.179C22.1313 212.766 21.685 213.264 21.0714 213.294C21.0993 213.294 21.0993 213.294 21.0714 213.294Z" fill="black"/>
<path d="M68.1816 213.118C67.6238 213.118 67.1496 212.648 67.1217 212.032C66.9265 196.751 66.9822 181.264 67.2891 166.012C67.4006 159.09 68.6278 153.546 71.0823 148.589C71.3612 148.061 71.9749 147.856 72.5048 148.12C73.0069 148.413 73.2022 149.058 72.9511 149.616C70.6082 154.338 69.4925 159.383 69.381 166.07C69.0741 181.293 68.9905 196.751 69.2136 212.003C69.2415 212.619 68.7952 213.118 68.1816 213.118C68.2095 213.118 68.2095 213.118 68.1816 213.118Z" fill="black"/>
<path d="M85.9207 436.856C83.5778 358.043 77.4973 280.198 75.1544 201.298C53.7333 207.78 29.6346 201.474 13.7361 185.283C14.2103 220.949 13.9314 256.411 13.7361 292.107C13.4572 340.093 12.5647 388.108 7.73938 435.83L85.9207 436.856Z" fill="#E8A6FF"/>
<path d="M85.9204 437.971C85.3626 437.971 84.8884 437.502 84.8884 436.915C83.7169 397.523 81.5693 357.721 79.5053 319.238C77.4692 281.137 75.3493 241.775 74.15 202.764C53.5099 208.484 30.6106 202.706 14.8237 187.864C15.2142 219.102 15.019 250.691 14.8516 281.284L14.7958 292.136C14.489 345.871 13.3454 390.894 8.79901 435.976C8.74323 436.592 8.21327 437.032 7.65543 436.944C7.06969 436.886 6.65135 436.328 6.73503 435.742C11.2814 390.777 12.425 345.812 12.7318 292.136L12.7875 281.284C12.9828 249.87 13.1781 217.371 12.7318 185.342C12.7318 184.902 12.9829 184.491 13.3733 184.315C13.7638 184.139 14.21 184.227 14.5168 184.52C30.1364 200.447 53.8446 206.636 74.9031 200.271C75.2099 200.183 75.5446 200.242 75.7956 200.447C76.0466 200.652 76.214 200.975 76.214 201.298C77.3855 240.748 79.5332 280.58 81.5972 319.121C83.6612 357.633 85.8089 397.465 86.9803 436.856C87.0082 437.472 86.5341 437.971 85.9762 438C85.9483 437.971 85.9483 437.971 85.9204 437.971Z" fill="black"/>
<g opacity="0.1294">
<path d="M72.2252 114.829C72.3089 114.653 72.4206 114.506 72.56 114.389C72.9784 114.008 73.4805 113.714 74.0383 113.685C74.2056 113.656 74.3729 113.597 74.4845 113.538C77.5247 112.013 77.6642 111.632 81.2344 108.845C83.3263 107.349 85.4461 105.59 87.9843 105.062C89.9088 104.651 92.168 104.739 93.5905 106.352C94.4831 107.437 95.292 109.168 95.1246 110.634C94.9852 112.394 93.4232 113.186 92.0565 112.981C92.1402 114.888 92.698 116.002 92.8654 119.346C92.8375 120.519 93.1721 121.81 92.698 122.924C91.387 126.063 87.1475 124.625 87.4822 121.282C87.4822 121.194 87.4822 121.135 87.4543 121.076C87.1754 119.082 87.1196 118.847 86.7849 116.823C83.2147 119.317 78.8357 121.34 74.6519 120.196C73.3131 119.639 71.5001 118.906 71.3328 117.175C71.1933 116.295 71.5837 115.386 72.2252 114.829Z" fill="black"/>
</g>
<g opacity="0.1294">
<path d="M18.6729 100.134C18.0593 94.0626 18.3103 87.639 21.0995 82.1834C24.335 75.9946 27.3194 73.5307 29.9692 69.3364C29.9971 69.2484 30.0529 69.1897 30.0808 69.1311C30.1923 68.8084 30.276 68.5151 30.3597 68.1925C30.4434 67.6938 30.5828 67.1952 30.9175 66.8139C32.3958 64.6727 35.4918 65.9926 35.5755 68.3391C36.0775 68.9551 36.3006 69.747 36.0496 70.6856C35.3523 73.9414 34.4319 77.1385 33.1489 80.1889C31.5869 83.5033 29.8855 86.7591 28.3793 90.1029C27.5425 91.6574 25.5343 99.8995 25.5064 102.833C25.2275 104.827 25.3112 103.859 25.1996 105.384C25.1996 105.795 25.1717 106.235 25.0044 106.587C24.9765 107.32 24.7813 107.966 24.2513 108.435C24.2513 108.64 24.2792 108.816 24.2792 109.021C24.7533 110.107 24.586 111.221 25.0881 113.392C26.0922 123.13 27.9052 133.102 29.0488 141.902C29.4671 144.512 29.7181 145.744 30.3875 147.123C31.7263 147.533 32.1448 149.059 32.8142 150.173C33.0931 150.672 33.3162 151.024 33.4836 151.288C33.7346 151.581 33.9856 151.874 34.2366 152.197C34.655 152.637 35.0734 153.106 35.2965 153.664C35.4918 153.722 35.7428 153.781 36.0775 153.869C36.2728 153.898 36.4122 153.928 36.4959 153.957C36.6353 153.986 36.8027 153.986 36.9422 154.016C37.249 154.045 37.5279 154.104 37.8068 154.133C37.5837 154.104 36.7748 153.986 37.2769 154.045C40.4008 154.338 43.5526 153.957 46.6486 153.546C49.6052 153.077 49.4099 153.282 53.2311 152.461C57.9169 151.376 62.3797 149.323 67.0934 148.325C68.6275 147.797 70.6078 147.68 71.6119 149.264C73.0623 151.024 72.0583 154.074 69.9385 154.602C65.2805 155.687 60.8177 157.535 56.2156 158.826C53.1753 159.618 50.0515 160.028 46.9276 160.351C40.8471 161.055 32.089 160.234 29.8018 155.394C29.6624 155.13 29.6065 154.837 29.6065 154.543C29.3276 154.133 29.0487 153.693 28.7698 153.282C28.1004 152.49 27.4589 151.669 26.8732 150.818C24.4745 146.771 24.3629 141.872 23.6098 137.297C22.3825 129.905 21.239 122.514 20.5696 115.034C20.5696 114.976 20.5416 114.888 20.5416 114.8C20.4022 113.861 20.2906 112.923 20.179 111.984C19.7049 111.163 19.7886 110.107 19.7049 109.139C19.677 108.347 19.5655 107.438 19.7886 106.675C19.7049 106.352 19.6492 106 19.6492 105.648C19.3424 103.801 18.8403 101.982 18.6729 100.134Z" fill="black"/>
</g>
<g opacity="0.1294">
<path d="M18.0313 180.677C18.896 180.912 19.5096 181.616 20.1512 182.261C21.8247 183.933 20.7369 182.907 22.4104 184.227C29.9134 189.389 34.8502 193.231 42.6042 195.226C47.5132 196.516 53.3705 196.282 60.2877 196.428C63.3837 196.34 66.4798 196.076 69.5758 196.487C70.831 196.663 72.2534 196.546 73.1738 197.602C75.0984 199.508 73.648 203.204 70.9983 203.116C67.0934 202.647 63.2164 203.057 59.3394 203.321C55.574 203.497 51.8085 203.35 48.071 202.852C42.0184 202.177 36.2169 200.036 30.8338 197.103C26.4826 194.58 16.9993 188.274 15.7721 186.602C12.6761 184.666 14.5448 179.739 18.0313 180.677Z" fill="black"/>
</g>
<g opacity="0.1294">
<path d="M63.6065 95.2653C63.718 95.0013 63.9133 94.5026 64.0527 94.1507C64.1364 93.916 64.2201 93.6814 64.3038 93.4467C64.0248 92.0975 64.6664 90.5429 66.0889 90.191C66.3399 90.0736 65.7263 90.3669 65.5869 90.4256C66.0052 90.2203 66.4236 90.0736 66.8419 89.8976C67.0093 89.8097 67.2324 89.6923 67.4277 89.575C67.6229 89.487 67.8461 89.311 68.0134 89.1937C72.2809 85.2927 76.5762 81.2156 81.9036 79.0451C83.5771 78.2825 85.3902 78.0185 87.1752 77.8425C88.3746 77.8425 89.7134 77.4612 90.857 77.9599C93.2836 78.9278 92.5026 82.9168 89.9086 82.8582C84.888 82.7408 81.5968 84.6767 76.1858 88.8711C73.9823 90.6896 72.0577 92.9188 69.6311 94.4147C69.6033 94.5613 69.5754 94.7373 69.5475 94.884C69.3801 95.3533 68.6549 97.1425 68.4318 97.6997C68.376 97.8464 68.3202 97.9637 68.2645 98.1104C67.874 99.8702 66.5073 101.278 64.6943 100.75C62.1282 99.8409 62.5466 97.3771 63.6065 95.2653Z" fill="black"/>
</g>
<g opacity="0.1294">
<path d="M63.6625 76.9627C65.7265 75.9361 64.8618 76.3761 67.2327 74.4109C72.0859 70.3045 77.0785 65.8169 83.2984 64.2623C84.9719 64.057 87.0639 63.2651 88.4585 64.673C90.0762 66.2568 88.849 69.3366 86.6455 69.2486C86.1992 68.926 81.9038 70.3045 81.8201 70.5392C79.4772 71.6538 77.3575 73.179 75.3213 74.8509C75.4887 74.7042 75.6839 74.5576 75.8513 74.4109C72.8947 76.5814 70.4681 79.5145 67.3163 81.3917C66.0054 82.037 64.4156 82.917 63.0489 82.037C61.0685 80.8931 61.459 77.52 63.6625 76.9627Z" fill="black"/>
</g>
<g opacity="0.1294">
<path d="M67.2047 109.55C66.619 108.787 66.3959 107.702 67.0095 106.499C67.6789 104.681 69.2409 104.299 70.4681 104.827C71.277 104.006 72.3369 103.302 73.0342 102.481C77.4969 98.6092 82.0991 94.5028 87.8448 92.9776C89.351 92.5669 90.9129 92.4496 92.447 92.4496C93.3116 92.4203 94.2321 92.5083 94.8737 93.2122C96.4077 94.7374 95.2641 97.6706 93.1443 97.6119C87.9006 97.0546 82.5732 101.308 78.6683 104.622C78.2499 105.003 77.8037 105.385 77.3853 105.766C76.2696 106.793 75.2656 107.936 74.122 108.963C73.5363 109.608 72.7832 110.107 71.9185 110.107C71.6117 110.107 71.3327 110.048 71.0817 109.96C71.0538 109.99 70.9981 110.019 70.9423 110.078C71.4722 110.459 71.9185 110.987 72.0858 111.662C72.7553 113.891 70.1892 115.944 68.3204 114.712C68.0973 114.565 67.651 114.213 67.3442 113.979C66.8421 113.627 66.4238 113.069 66.2843 112.453C65.9496 111.339 66.3959 110.195 67.2047 109.55Z" fill="black"/>
</g>
</g>
<defs>
<filter id="filter0_d_4_193" x="0" y="0" width="102.584" height="446" filterUnits="userSpaceOnUse" color-interpolation-filters="sRGB">
<feFlood flood-opacity="0" result="BackgroundImageFix"/>
<feColorMatrix in="SourceAlpha" type="matrix" values="0 0 0 0 0 0 0 0 0 0 0 0 0 0 0 0 0 0 127 0" result="hardAlpha"/>
<feOffset dy="4"/>
<feGaussianBlur stdDeviation="2"/>
<feComposite in2="hardAlpha" operator="out"/>
<feColorMatrix type="matrix" values="0 0 0 0 0 0 0 0 0 0 0 0 0 0 0 0 0 0 0.25 0"/>
<feBlend mode="normal" in2="BackgroundImageFix" result="effect1_dropShadow_4_193"/>
<feBlend mode="normal" in="SourceGraphic" in2="effect1_dropShadow_4_193" result="shape"/>
</filter>
</defs>
</svg>
